<?xml version="1.0" standalone="no"?>
<!DOCTYPE svg PUBLIC "-//W3C//DTD SVG 20010904//EN"
 "http://www.w3.org/TR/2001/REC-SVG-20010904/DTD/svg10.dtd">
<svg version="1.0" xmlns="http://www.w3.org/2000/svg"
 width="574.000000pt" height="582.000000pt" viewBox="0 0 574.000000 582.000000"
 preserveAspectRatio="xMidYMid meet">

<g transform="translate(0.000000,582.000000) scale(0.100000,-0.100000)"
fill="#000000" stroke="none">
<path d="M0 2910 l0 -2910 2870 0 2870 0 0 2910 0 2910 -2870 0 -2870 0 0
-2910z m3107 2634 c51 -3 96 -10 99 -16 4 -7 -7 -8 -32 -4 -146 23 -463 11
-673 -25 -383 -65 -767 -219 -1050 -420 -30 -22 -61 -39 -69 -39 -9 0 -12 -3
-9 -6 3 -4 -11 -19 -33 -35 -52 -38 -168 -136 -203 -171 -15 -15 -29 -28 -32
-28 -9 0 -5 38 4 42 5 2 34 26 63 53 173 163 429 329 673 437 406 180 786 244
1262 212z m264 -35 c57 -11 106 -22 108 -25 9 -8 -35 -3 -94 11 -33 8 -76 15
-95 15 -19 1 -44 5 -55 10 -38 16 27 11 136 -11z m-161 -45 c5 -5 -76 -10
-218 -11 -125 0 -249 -5 -276 -10 -33 -5 43 -8 230 -9 153 -1 302 -6 329 -11
35 -6 -13 -8 -161 -5 -368 8 -645 -37 -963 -154 -90 -34 -330 -142 -341 -154
-3 -3 -32 -21 -65 -39 -129 -72 -348 -232 -475 -348 -24 -22 -26 -22 -38 -6
-7 10 -18 17 -24 15 -7 -2 -6 3 2 13 11 13 10 15 -2 10 -8 -3 -21 1 -28 9 -7
9 -17 13 -24 9 -24 -13 73 73 161 144 267 213 620 390 956 478 122 32 321 68
427 78 83 8 500 1 510 -9z m370 -4 c73 -24 52 -24 -30 0 -36 10 -56 19 -45 19
11 0 45 -8 75 -19z m-280 -6 c0 -2 -16 -4 -35 -4 -19 0 -35 4 -35 8 0 4 16 6
35 4 19 -2 35 -6 35 -8z m58 -11 c-10 -2 -26 -2 -35 0 -10 3 -2 5 17 5 19 0
27 -2 18 -5z m55 -10 c-7 -2 -19 -2 -25 0 -7 3 -2 5 12 5 14 0 19 -2 13 -5z
m288 -8 c44 -18 26 -19 -26 0 -22 8 -33 14 -24 15 9 0 32 -7 50 -15z m-228 -2
c-7 -2 -19 -2 -25 0 -7 3 -2 5 12 5 14 0 19 -2 13 -5z m-100 -20 c-7 -2 -21
-2 -30 0 -10 3 -4 5 12 5 17 0 24 -2 18 -5z m180 0 c-7 -2 -19 -2 -25 0 -7 3
-2 5 12 5 14 0 19 -2 13 -5z m252 -14 c22 -10 29 -16 16 -13 -37 10 -88 33
-71 33 8 0 33 -9 55 -20z m-362 4 c-7 -2 -19 -2 -25 0 -7 3 -2 5 12 5 14 0 19
-2 13 -5z m44 -9 c-3 -3 -12 -4 -19 -1 -8 3 -5 6 6 6 11 1 17 -2 13 -5z m50
-10 c-3 -3 -12 -4 -19 -1 -8 3 -5 6 6 6 11 1 17 -2 13 -5z m368 -25 c5 -5 -5
-4 -23 2 -17 6 -32 13 -32 16 0 7 43 -8 55 -18z m-2761 -695 c4 -41 3 -51 -3
-32 -13 39 -23 138 -12 112 5 -11 12 -47 15 -80z m1113 -1614 c282 -817 530
-1534 551 -1595 l39 -110 46 145 c302 954 571 2002 722 2811 20 107 39 204 42
217 5 22 7 22 180 22 l175 0 -6 -22 c-3 -13 -257 -752 -564 -1643 l-559 -1620
-194 -3 -194 -2 -495 1437 c-272 790 -527 1531 -567 1645 l-71 208 191 -2 191
-3 513 -1485z m-1457 1403 c0 -3 -22 -41 -50 -84 -82 -128 -220 -403 -220
-438 0 -3 24 41 53 99 56 110 58 114 146 250 62 97 96 141 120 154 14 8 14 7
2 -7 -12 -16 -9 -19 15 -16 3 0 14 -9 23 -20 20 -23 36 -28 25 -8 -4 6 -3 8 1
4 16 -14 14 -40 -4 -66 -72 -103 -184 -314 -244 -461 -128 -313 -189 -681
-167 -1020 10 -153 15 -192 46 -360 65 -339 233 -713 453 -1005 181 -240 496
-506 764 -645 31 -17 47 -32 48 -45 1 -15 2 -16 6 -4 3 14 20 10 111 -31 221
-99 507 -176 767 -206 267 -31 597 -10 878 56 93 21 314 93 360 117 16 8 31
12 33 10 8 -7 -161 -76 -285 -117 -526 -173 -1092 -170 -1624 7 -67 22 -103
39 -95 44 7 5 1 7 -17 7 -36 -1 -188 67 -340 152 -91 50 -328 218 -410 290
-22 19 -84 77 -137 130 -82 80 -96 99 -92 120 3 18 2 20 -4 7 -7 -16 -11 -14
-39 15 -59 63 -191 246 -257 358 -179 301 -285 609 -331 960 -29 221 -20 555
21 774 60 321 187 637 357 893 34 51 68 93 75 93 6 0 12 -3 12 -7z m3520
-3538 c0 -2 -10 -9 -22 -15 -22 -11 -22 -10 -4 4 21 17 26 19 26 11z m-50 -30
c0 -2 -10 -9 -22 -15 -22 -11 -22 -10 -4 4 21 17 26 19 26 11z m-50 -30 c0 -2
-13 -11 -30 -20 -38 -19 -40 -11 -2 9 31 17 32 18 32 11z m-90 -50 c0 -6 -137
-75 -147 -75 -6 1 134 77 145 80 1 0 2 -2 2 -5z"/>
<path d="M798 4183 c7 -3 16 -2 19 1 4 3 -2 6 -13 5 -11 0 -14 -3 -6 -6z"/>
<path d="M1128 1253 c7 -3 16 -2 19 1 4 3 -2 6 -13 5 -11 0 -14 -3 -6 -6z"/>
<path d="M1058 1243 c6 -2 18 -2 25 0 6 3 1 5 -13 5 -14 0 -19 -2 -12 -5z"/>
<path d="M1821 724 c0 -11 3 -14 6 -6 3 7 2 16 -1 19 -3 4 -6 -2 -5 -13z"/>
</g>
</svg>
